{
    "asset" : {
        "generator" : "Khronos glTF Blender I/O v1.5.17",
        "version" : "2.0"
    },
    "extensionsUsed" : [
        "KHR_materials_clearcoat"
    ],
    "scene" : 0,
    "scenes" : [
        {
            "name" : "Scene",
            "nodes" : [
                0
            ]
        }
    ],
    "nodes" : [
        {
            "mesh" : 0,
            "name" : "Default.001",
            "rotation" : [
                0.7071068286895752,
                0,
                0,
                0.7071067094802856
            ],
            "scale" : [
                0.013454074040055275,
                0.013454074040055275,
                0.013454074040055275
            ]
        }
    ],
    "materials" : [
        {
            "alphaMode" : "BLEND",
            "doubleSided" : true,
            "extensions" : {
                "KHR_materials_clearcoat" : {
                    "clearcoatFactor" : 1,
                    "clearcoatRoughnessFactor" : 0
                }
            },
            "name" : "FrontColor.001",
            "pbrMetallicRoughness" : {
                "baseColorFactor" : [
                    0.02187459170818329,
                    0,
                    1,
                    1
                ],
                "roughnessFactor" : 0.1090909093618393
            }
        }
    ],
    "meshes" : [
        {
            "name" : "Default.001",
            "primitives" : [
                {
                    "attributes" : {
                        "POSITION" : 0,
                        "NORMAL" : 1,
                        "TEXCOORD_0" : 2
                    },
                    "indices" : 3,
                    "material" : 0
                }
            ]
        }
    ],
    "accessors" : [
        {
            "bufferView" : 0,
            "componentType" : 5126,
            "count" : 17632,
            "max" : [
                242.8225555419922,
                280.9263610839844,
                86.3978500366211
            ],
            "min" : [
                -219.43438720703125,
                -212.8794708251953,
                -76.57862854003906
            ],
            "type" : "VEC3"
        },
        {
            "bufferView" : 1,
            "componentType" : 5126,
            "count" : 17632,
            "type" : "VEC3"
        },
        {
            "bufferView" : 2,
            "componentType" : 5126,
            "count" : 17632,
            "type" : "VEC2"
        },
        {
            "bufferView" : 3,
            "componentType" : 5123,
            "count" : 17778,
            "type" : "SCALAR"
        }
    ],
    "bufferViews" : [
        {
            "buffer" : 0,
            "byteLength" : 211584,
            "byteOffset" : 0
        },
        {
            "buffer" : 0,
            "byteLength" : 211584,
            "byteOffset" : 211584
        },
        {
            "buffer" : 0,
            "byteLength" : 141056,
            "byteOffset" : 423168
        },
        {
            "buffer" : 0,
            "byteLength" : 35556,
            "byteOffset" : 564224
        }
    ],
    "buffers" : [
        {
            "byteLength" : 599780,
            "uri" : "data:application/octet-stream;base64,"
        }
    ]
}
